REM MD5 fb442652ed48a89c04220401c2c84d24
FILE "Time Commando (Australia).bin" BINARY
  TRACK 01 MODE2/2352
    INDEX 01 00:00:00
  TRACK 02 AUDIO
    INDEX 00 44:43:53
    INDEX 01 44:45:53
  TRACK 03 AUDIO
    INDEX 00 47:53:00
    INDEX 01 47:55:00
REM LEADOUT 51:04:18
